<?xml version="1.0" encoding="UTF-8"?>
<svg id="_图层_1" data-name="图层 1" xmlns="http://www.w3.org/2000/svg" xmlns:xlink="http://www.w3.org/1999/xlink" viewBox="0 0 501.956287844371218 456.687936336425992">
  <defs>
    <style>
      .cls-1, .cls-2, .cls-3, .cls-4, .cls-5, .cls-6, .cls-7, .cls-8, .cls-9, .cls-10, .cls-11, .cls-12, .cls-13, .cls-14, .cls-15, .cls-16, .cls-17, .cls-18, .cls-19, .cls-20, .cls-21, .cls-22, .cls-23, .cls-24, .cls-25, .cls-26, .cls-27, .cls-28, .cls-29, .cls-30 {
        stroke-miterlimit: 10;
      }

      .cls-1, .cls-2, .cls-3, .cls-4, .cls-6, .cls-7, .cls-9, .cls-10, .cls-11, .cls-12, .cls-13, .cls-14, .cls-15, .cls-17, .cls-18, .cls-19, .cls-20, .cls-21, .cls-22, .cls-23, .cls-24, .cls-25, .cls-27, .cls-28, .cls-29, .cls-30 {
        stroke: #231815;
      }

      .cls-1, .cls-15 {
        fill: #48ff7f;
      }

      .cls-2, .cls-4, .cls-5, .cls-6, .cls-8, .cls-11, .cls-12, .cls-14, .cls-15, .cls-16, .cls-20, .cls-21, .cls-22, .cls-26, .cls-28 {
        stroke-width: .5px;
      }

      .cls-31 {
        font-size: 5.897049427032471px;
      }

      .cls-31, .cls-20, .cls-32, .cls-33 {
        font-family: AdobeSongStd-Light-GBpc-EUC-H, 'Adobe Song Std';
        font-weight: 300;
      }

      .cls-34 {
        fill: #231815;
      }

      .cls-34, .cls-35, .cls-36 {
        stroke-width: 0px;
      }

      .cls-3, .cls-22 {
        fill: #ffc35f;
      }

      .cls-4, .cls-27 {
        fill: #bdffff;
      }

      .cls-5 {
        stroke-dasharray: 0 0 0 0 0 0 .941977381706238 .470988690853119 .470988690853119 0 .470988690853119 .470988690853119;
      }

      .cls-5, .cls-8, .cls-16, .cls-21, .cls-26 {
        fill: none;
      }

      .cls-5, .cls-16, .cls-26 {
        stroke: #898989;
      }

      .cls-6, .cls-17 {
        fill: #b5b5b6;
      }

      .cls-7 {
        fill: #fff15f;
      }

      .cls-8 {
        stroke: #00a0e9;
      }

      .cls-35 {
        fill: #00a0e9;
      }

      .cls-9, .cls-11 {
        fill: #c8ff7f;
      }

      .cls-10 {
        fill: #dae000;
      }

      .cls-12, .cls-23 {
        fill: #595757;
      }

      .cls-36, .cls-24 {
        fill: #fff;
      }

      .cls-13 {
        fill: #036eb8;
      }

      .cls-14, .cls-19 {
        fill: #ffffc3;
      }

      .cls-18, .cls-28 {
        fill: #ffdaf2;
      }

      .cls-20 {
        font-size: 10px;
      }

      .cls-32 {
        font-size: 8.157000541687012px;
      }

      .cls-33 {
        font-size: 7.076459884643555px;
      }

      .cls-25 {
        fill: #006934;
      }

      .cls-26 {
        stroke-dasharray: 0 0 0 0 .470988690853119 0 .470988690853119 .470988690853119;
      }

      .cls-29 {
        fill: #727171;
      }

      .cls-30 {
        fill: #38ff3f;
      }
    </style>
  </defs>
  <image width="779" height="240" transform="translate(1.155739861274014 244.131543786141265) scale(.642555260568802 .624532353792005)" xlink:href="QQ图片20240714141148.png"/>
  <g>
    <ellipse class="cls-24" cx="360.312687301892311" cy="6.929812472535559" rx="5.397425414062583" ry="5.26970397205514"/>
    <text class="cls-33" transform="translate(356.380319148939634 9.41455078125) scale(1.024236917495728 1)"><tspan x="0" y="0">life</tspan></text>
    <ellipse class="cls-1" cx="268.583217066856378" cy="128.249789356675819" rx="5.397425414060308" ry="5.269703972054459"/>
    <ellipse class="cls-9" cx="287.384248141477201" cy="105.948111448487225" rx="5.397425414061672" ry="5.269703972054913"/>
    <g>
      <g>
        <line class="cls-21" x1="259.197885066908384" y1="148.437057495117188" x2="469.299386531752134" y2="148.437057495117188"/>
        <path class="cls-34" d="m467.926278621595884,148.437057495117188l-1.676422119140625-2.756317138671875.0941162109375-.0623779296875,4.494384765625,1.785125732421875c1.565887451171875.344390869140625,3.131683349609375.688796997070312,4.697601318359375,1.0335693359375-1.56591796875.344390869140625-3.1317138671875.688796997070312-4.697601318359375,1.0335693359375l-4.494384765625,1.785125732421875-.0941162109375-.04705810546875,1.676422119140625-2.771636962890625Z"/>
      </g>
      <ellipse class="cls-2" cx="259.344193447036787" cy="148.49423544931733" rx="1.080339731349568" ry="1.097854994178761"/>
    </g>
    <g>
      <line class="cls-16" x1="268.583230525892759" y1="150.3699951171875" x2="268.583230525892759" y2="149.8699951171875"/>
      <line class="cls-26" x1="268.583230525892759" y1="149.399017333984375" x2="268.583230525892759" y2="148.221542358398438"/>
      <line class="cls-5" x1="268.583230525892759" y1="147.986038208007812" x2="268.583230525892759" y2="134.091873168945312"/>
      <line class="cls-16" x1="268.583230525892759" y1="133.85638427734375" x2="268.583230525892759" y2="133.35638427734375"/>
    </g>
    <g>
      <line class="cls-16" x1="317.847573787611509" y1="150.294708251953125" x2="317.847573787611509" y2="149.794708251953125"/>
      <line class="cls-26" x1="317.847573787611509" y1="149.32373046875" x2="317.847573787611509" y2="148.146255493164062"/>
      <line class="cls-5" x1="317.847573787611509" y1="147.9107666015625" x2="317.847573787611509" y2="134.016586303710938"/>
      <line class="cls-16" x1="317.847573787611509" y1="133.781097412109375" x2="317.847573787611509" y2="133.281097412109375"/>
    </g>
    <g>
      <line class="cls-16" x1="305.144357234877134" y1="150.3699951171875" x2="305.144357234877134" y2="149.8699951171875"/>
      <line class="cls-26" x1="305.144357234877134" y1="149.399017333984375" x2="305.144357234877134" y2="148.221542358398438"/>
      <line class="cls-5" x1="305.144357234877134" y1="147.986038208007812" x2="305.144357234877134" y2="134.091873168945312"/>
      <line class="cls-16" x1="305.144357234877134" y1="133.85638427734375" x2="305.144357234877134" y2="133.35638427734375"/>
    </g>
    <g>
      <line class="cls-16" x1="292.781686336439634" y1="150.294708251953125" x2="292.781686336439634" y2="149.794708251953125"/>
      <line class="cls-26" x1="292.781686336439634" y1="149.32373046875" x2="292.781686336439634" y2="148.146255493164062"/>
      <line class="cls-5" x1="292.781686336439634" y1="147.9107666015625" x2="292.781686336439634" y2="134.016586303710938"/>
      <line class="cls-16" x1="292.781686336439634" y1="133.781097412109375" x2="292.781686336439634" y2="133.281097412109375"/>
    </g>
    <g>
      <line class="cls-16" x1="280.701730281752134" y1="150.294708251953125" x2="280.701730281752134" y2="149.794708251953125"/>
      <line class="cls-26" x1="280.701730281752134" y1="149.32373046875" x2="280.701730281752134" y2="148.146255493164062"/>
      <line class="cls-5" x1="280.701730281752134" y1="147.9107666015625" x2="280.701730281752134" y2="134.016586303710938"/>
      <line class="cls-16" x1="280.701730281752134" y1="133.781097412109375" x2="280.701730281752134" y2="133.281097412109375"/>
    </g>
    <g>
      <line class="cls-16" x1="378.189492732924009" y1="150.294708251953125" x2="378.189492732924009" y2="149.794708251953125"/>
      <line class="cls-26" x1="378.189492732924009" y1="149.32373046875" x2="378.189492732924009" y2="148.146255493164062"/>
      <line class="cls-5" x1="378.189492732924009" y1="147.9107666015625" x2="378.189492732924009" y2="134.016586303710938"/>
      <line class="cls-16" x1="378.189492732924009" y1="133.781097412109375" x2="378.189492732924009" y2="133.281097412109375"/>
    </g>
    <g>
      <line class="cls-16" x1="366.022408992689634" y1="150.3699951171875" x2="366.022408992689634" y2="149.8699951171875"/>
      <line class="cls-26" x1="366.022408992689634" y1="149.399017333984375" x2="366.022408992689634" y2="148.221542358398438"/>
      <line class="cls-5" x1="366.022408992689634" y1="147.986038208007812" x2="366.022408992689634" y2="134.091873168945312"/>
      <line class="cls-16" x1="366.022408992689634" y1="133.85638427734375" x2="366.022408992689634" y2="133.35638427734375"/>
    </g>
    <g>
      <line class="cls-16" x1="353.502725154799009" y1="150.3699951171875" x2="353.502725154799009" y2="149.8699951171875"/>
      <line class="cls-26" x1="353.502725154799009" y1="149.399017333984375" x2="353.502725154799009" y2="148.221542358398438"/>
      <line class="cls-5" x1="353.502725154799009" y1="147.986038208007812" x2="353.502725154799009" y2="134.091873168945312"/>
      <line class="cls-16" x1="353.502725154799009" y1="133.85638427734375" x2="353.502725154799009" y2="133.35638427734375"/>
    </g>
    <g>
      <line class="cls-16" x1="341.705483943861509" y1="150.294708251953125" x2="341.705483943861509" y2="149.794708251953125"/>
      <line class="cls-26" x1="341.705483943861509" y1="149.32373046875" x2="341.705483943861509" y2="148.146255493164062"/>
      <line class="cls-5" x1="341.705483943861509" y1="147.9107666015625" x2="341.705483943861509" y2="134.016586303710938"/>
      <line class="cls-16" x1="341.705483943861509" y1="133.781097412109375" x2="341.705483943861509" y2="133.281097412109375"/>
    </g>
    <g>
      <line class="cls-16" x1="329.474526912611509" y1="150.3699951171875" x2="329.474526912611509" y2="149.8699951171875"/>
      <line class="cls-26" x1="329.474526912611509" y1="149.399017333984375" x2="329.474526912611509" y2="148.221542358398438"/>
      <line class="cls-5" x1="329.474526912611509" y1="147.986038208007812" x2="329.474526912611509" y2="134.091873168945312"/>
      <line class="cls-16" x1="329.474526912611509" y1="133.85638427734375" x2="329.474526912611509" y2="133.35638427734375"/>
    </g>
    <g>
      <line class="cls-16" x1="415.033364803236509" y1="150.3699951171875" x2="415.033364803236509" y2="149.8699951171875"/>
      <line class="cls-26" x1="415.033364803236509" y1="149.399017333984375" x2="415.033364803236509" y2="148.221542358398438"/>
      <line class="cls-5" x1="415.033364803236509" y1="147.986038208007812" x2="415.033364803236509" y2="134.091873168945312"/>
      <line class="cls-16" x1="415.033364803236509" y1="133.85638427734375" x2="415.033364803236509" y2="133.35638427734375"/>
    </g>
    <g>
      <line class="cls-16" x1="402.105233699720884" y1="150.294708251953125" x2="402.105233699720884" y2="149.794708251953125"/>
      <line class="cls-26" x1="402.105233699720884" y1="149.32373046875" x2="402.105233699720884" y2="148.146255493164062"/>
      <line class="cls-5" x1="402.105233699720884" y1="147.9107666015625" x2="402.105233699720884" y2="134.016586303710938"/>
      <line class="cls-16" x1="402.105233699720884" y1="133.781097412109375" x2="402.105233699720884" y2="133.281097412109375"/>
    </g>
    <g>
      <line class="cls-16" x1="390.076699764174009" y1="150.294708251953125" x2="390.076699764174009" y2="149.794708251953125"/>
      <line class="cls-26" x1="390.076699764174009" y1="149.32373046875" x2="390.076699764174009" y2="148.146255493164062"/>
      <line class="cls-5" x1="390.076699764174009" y1="147.9107666015625" x2="390.076699764174009" y2="134.016586303710938"/>
      <line class="cls-16" x1="390.076699764174009" y1="133.781097412109375" x2="390.076699764174009" y2="133.281097412109375"/>
    </g>
    <g>
      <line class="cls-16" x1="450.643502742689634" y1="150.3699951171875" x2="450.643502742689634" y2="149.8699951171875"/>
      <line class="cls-26" x1="450.643502742689634" y1="149.399017333984375" x2="450.643502742689634" y2="148.221542358398438"/>
      <line class="cls-5" x1="450.643502742689634" y1="147.986038208007812" x2="450.643502742689634" y2="134.091873168945312"/>
      <line class="cls-16" x1="450.643502742689634" y1="133.85638427734375" x2="450.643502742689634" y2="133.35638427734375"/>
    </g>
    <g>
      <line class="cls-16" x1="438.936257869642759" y1="150.294708251953125" x2="438.936257869642759" y2="149.794708251953125"/>
      <line class="cls-26" x1="438.936257869642759" y1="149.32373046875" x2="438.936257869642759" y2="148.146255493164062"/>
      <line class="cls-5" x1="438.936257869642759" y1="147.9107666015625" x2="438.936257869642759" y2="134.016586303710938"/>
      <line class="cls-16" x1="438.936257869642759" y1="133.781097412109375" x2="438.936257869642759" y2="133.281097412109375"/>
    </g>
    <g>
      <line class="cls-16" x1="426.907693416517759" y1="150.3699951171875" x2="426.907693416517759" y2="149.8699951171875"/>
      <line class="cls-26" x1="426.907693416517759" y1="149.399017333984375" x2="426.907693416517759" y2="148.221542358398438"/>
      <line class="cls-5" x1="426.907693416517759" y1="147.986038208007812" x2="426.907693416517759" y2="134.091873168945312"/>
      <line class="cls-16" x1="426.907693416517759" y1="133.85638427734375" x2="426.907693416517759" y2="133.35638427734375"/>
    </g>
    <ellipse class="cls-9" cx="292.781673555539328" cy="128.249789356675819" rx="5.397425414062583" ry="5.269703972054459"/>
    <ellipse class="cls-9" cx="280.701721438353161" cy="128.249789356675819" rx="5.397425414061217" ry="5.269703972054459"/>
    <ellipse class="cls-3" cx="329.474528111491964" cy="128.249789356675819" rx="5.397425414062127" ry="5.269703972054459"/>
    <ellipse class="cls-18" cx="317.378513012551139" cy="128.249789356675819" rx="5.397425414060763" ry="5.269703972054459"/>
    <ellipse class="cls-18" cx="305.144348348499079" cy="128.249789356675819" rx="5.397425414061217" ry="5.269703972054459"/>
    <ellipse class="cls-27" cx="377.99022805073173" cy="128.249789356675819" rx="5.397425414061672" ry="5.269703972054459"/>
    <ellipse class="cls-19" cx="365.900792551428822" cy="128.249789356675819" rx="5.397425414060308" ry="5.269703972054459"/>
    <ellipse class="cls-19" cx="353.617391418622901" cy="128.249789356675819" rx="5.397425414063036" ry="5.269703972054459"/>
    <ellipse class="cls-3" cx="341.576970285595962" cy="128.249789356675819" rx="5.397425414062127" ry="5.269703972054459"/>
    <ellipse class="cls-17" cx="426.528727409755447" cy="128.249789356675819" rx="5.397425414062127" ry="5.269703972054459"/>
    <ellipse class="cls-17" cx="414.433739269551097" cy="128.249789356675819" rx="5.397425414062583" ry="5.269703972054459"/>
    <ellipse class="cls-17" cx="401.723472092311567" cy="128.249789356675819" rx="5.397425414062127" ry="5.269703972054459"/>
    <ellipse class="cls-27" cx="389.880363730489989" cy="128.249722263449485" rx="5.397425414062366" ry="5.269703972055888"/>
    <ellipse class="cls-23" cx="451.018097525857684" cy="128.249789356675819" rx="5.397425414062583" ry="5.269703972054459"/>
    <ellipse class="cls-17" cx="438.718209548355389" cy="128.249789356675819" rx="5.397425414060763" ry="5.269703972054459"/>
    <text class="cls-31" transform="translate(264.942819148939634 130.84130859375) scale(1.024236917495728 1)"><tspan x="0" y="0">G1</tspan></text>
    <text class="cls-31" transform="translate(301.227975398939634 130.2529296875) scale(1.024236917495728 1)"><tspan x="0" y="0">G4</tspan></text>
    <text class="cls-31" transform="translate(289.445748836439634 130.84130859375) scale(1.024236917495728 1)"><tspan x="0" y="0">G3</tspan></text>
    <text class="cls-31" transform="translate(277.265084773939634 130.84130859375) scale(1.024236917495728 1)"><tspan x="0" y="0">G2</tspan></text>
    <text class="cls-31" transform="translate(396.600045711439634 130.251953125) scale(1.024236917495728 1)"><tspan x="0" y="0">G12</tspan></text>
    <text class="cls-31" transform="translate(384.836373836439634 130.251953125) scale(1.024236917495728 1)"><tspan x="0" y="0">G11</tspan></text>
    <text class="cls-31" transform="translate(372.450631648939634 130.251953125) scale(1.024236917495728 1)"><tspan x="0" y="0">G10</tspan></text>
    <text class="cls-31" transform="translate(362.148873836439634 130.251953125) scale(1.024236917495728 1)"><tspan x="0" y="0">G9</tspan></text>
    <text class="cls-31" transform="translate(349.909616023939634 130.2529296875) scale(1.024236917495728 1)"><tspan x="0" y="0">G8</tspan></text>
    <text class="cls-31" transform="translate(338.176217586439634 130.251953125) scale(1.024236917495728 1)"><tspan x="0" y="0">G7</tspan></text>
    <text class="cls-31" transform="translate(325.934030086439634 130.251953125) scale(1.024236917495728 1)"><tspan x="0" y="0">G6</tspan></text>
    <text class="cls-31" transform="translate(313.810983211439634 130.251953125) scale(1.024236917495728 1)"><tspan x="0" y="0">G5</tspan></text>
    <text class="cls-31" transform="translate(446.213326961439634 130.2529296875) scale(1.024236917495728 1)"><tspan x="0" y="0">G16</tspan></text>
    <text class="cls-31" transform="translate(433.827584773939634 130.251953125) scale(1.024236917495728 1)"><tspan x="0" y="0">G15</tspan></text>
    <text class="cls-31" transform="translate(421.785592586439634 130.2529296875) scale(1.024236917495728 1)"><tspan x="0" y="0">G14</tspan></text>
    <text class="cls-31" transform="translate(409.398873836439634 130.2529296875) scale(1.024236917495728 1)"><tspan x="0" y="0">G13</tspan></text>
    <ellipse class="cls-27" cx="384.482938316427862" cy="105.948111448487225" rx="5.397425414061217" ry="5.269703972054913"/>
    <ellipse class="cls-19" cx="359.790508136711196" cy="105.948111448487225" rx="5.397425414061672" ry="5.269703972054913"/>
    <ellipse class="cls-3" cx="335.47595113141324" cy="105.948111448487225" rx="5.397425414062127" ry="5.269703972054913"/>
    <ellipse class="cls-18" cx="311.248295826065714" cy="105.948111448487225" rx="5.397425414061672" ry="5.269703972054913"/>
    <ellipse class="cls-17" cx="438.718209548357208" cy="105.948111448487225" rx="5.397425414062583" ry="5.269703972054913"/>
    <ellipse class="cls-17" cx="414.433739269550642" cy="105.948543876952044" rx="5.397425414062127" ry="5.269703972054685"/>
    <text class="cls-31" transform="translate(284.766061336439634 107.9794921875) scale(1.024236917495728 1)"><tspan x="0" y="0">F1</tspan></text>
    <text class="cls-31" transform="translate(436.184030086439634 107.9794921875) scale(1.024236917495728 1)"><tspan x="0" y="0">F7</tspan></text>
    <text class="cls-31" transform="translate(412.060983211439634 108.15576171875) scale(1.024236917495728 1)"><tspan x="0" y="0">F6</tspan></text>
    <text class="cls-31" transform="translate(381.599069148939634 108.068359375) scale(1.024236917495728 1)"><tspan x="0" y="0">F5</tspan></text>
    <text class="cls-31" transform="translate(357.242623836439634 108.068359375) scale(1.024236917495728 1)"><tspan x="0" y="0">F4</tspan></text>
    <text class="cls-31" transform="translate(332.872506648939634 107.9794921875) scale(1.024236917495728 1)"><tspan x="0" y="0">F3</tspan></text>
    <text class="cls-31" transform="translate(308.226998836439634 107.9794921875) scale(1.024236917495728 1)"><tspan x="0" y="0">F2</tspan></text>
    <polyline class="cls-21" points="280.70172241880482 122.980092276841788 287.384247749293536 111.217810488449686 292.781674535991442 122.980092276841788"/>
    <polyline class="cls-21" points="305.144348348499079 122.980085384620907 310.898761945988554 111.891365098706956 311.248295826065259 111.217815420542138 317.378513012549774 122.980085384620907"/>
    <polyline class="cls-21" points="329.474528111492873 122.980085384620907 335.47595113141233 111.217815420542138 341.576970285595053 122.980085384620907"/>
    <polyline class="cls-21" points="353.617391418622901 122.980085384620907 359.790508136710741 111.217815420542138 365.900792551427912 122.980085384620907"/>
    <polyline class="cls-21" points="377.990228050731275 122.980085384620907 384.482938316427862 111.217815420542138 389.683899046355691 122.983510465098334"/>
    <polyline class="cls-21" points="401.723472092312477 122.980085384620907 414.433739269551552 111.21824784900673 414.433739269551552 122.980085384620907"/>
    <line class="cls-21" x1="426.528727409754538" y1="122.980085384620907" x2="414.433739269551552" y2="111.21824784900673"/>
    <line class="cls-21" x1="438.718209548357663" y1="111.217815420542138" x2="438.718209548357663" y2="122.302552016774825"/>
    <ellipse class="cls-1" cx="268.583217066856378" cy="86.3932835214855" rx="5.397425414060308" ry="5.26970397205514"/>
    <ellipse class="cls-19" cx="359.790508136711196" cy="86.3932835214855" rx="5.397425414061672" ry="5.26970397205514"/>
    <ellipse class="cls-3" cx="335.525749198543963" cy="86.3932835214855" rx="5.397425414061217" ry="5.26970397205514"/>
    <ellipse class="cls-18" cx="311.261430680525336" cy="86.3932835214855" rx="5.397425414061217" ry="5.26970397205514"/>
    <ellipse class="cls-9" cx="287.384248141477201" cy="86.3932835214855" rx="5.397425414061672" ry="5.26970397205514"/>
    <ellipse class="cls-17" cx="427.117688992595959" cy="86.3932835214855" rx="5.397425414060763" ry="5.26970397205514"/>
    <ellipse class="cls-27" cx="384.482938316426953" cy="86.3932835214855" rx="5.397425414060308" ry="5.26970397205514"/>
    <text class="cls-31" transform="translate(264.653756648939634 88.77685546875) scale(1.024236917495728 1)"><tspan x="0" y="0">O1</tspan></text>
    <text class="cls-31" transform="translate(331.974069148939634 88.77685546875) scale(1.024236917495728 1)"><tspan x="0" y="0">O4</tspan></text>
    <text class="cls-31" transform="translate(308.227975398939634 88.77685546875) scale(1.024236917495728 1)"><tspan x="0" y="0">O3</tspan></text>
    <text class="cls-31" transform="translate(284.161569148939634 88.77685546875) scale(1.024236917495728 1)"><tspan x="0" y="0">O2</tspan></text>
    <g>
      <ellipse class="cls-23" cx="451.018097525859503" cy="86.759653857028752" rx="5.397425414064401" ry="5.269703972054231"/>
      <text class="cls-31" transform="translate(447.110787898939634 88.36474609375) scale(1.024236917495728 1)"><tspan x="0" y="0">O8</tspan></text>
    </g>
    <text class="cls-31" transform="translate(423.274850398939634 88.52685546875) scale(1.024236917495728 1)"><tspan x="0" y="0">O7</tspan></text>
    <text class="cls-31" transform="translate(380.859811336439634 88.86572265625) scale(1.024236917495728 1)"><tspan x="0" y="0">O6</tspan></text>
    <text class="cls-31" transform="translate(356.059030086439634 88.77685546875) scale(1.024236917495728 1)"><tspan x="0" y="0">O5</tspan></text>
    <ellipse class="cls-30" cx="277.542435045426373" cy="65.481358627935379" rx="5.397425414061672" ry="5.269703972054913"/>
    <ellipse class="cls-27" cx="384.482938316426953" cy="65.481358627935379" rx="5.397425414060308" ry="5.269703972054913"/>
    <ellipse class="cls-19" cx="359.790508136711196" cy="65.481358627935379" rx="5.397425414061672" ry="5.269703972054913"/>
    <ellipse class="cls-7" cx="324.077102697429837" cy="65.481358627935379" rx="5.397425414063036" ry="5.269703972054913"/>
    <text class="cls-33" transform="translate(273.520944148939634 67.77099609375) scale(1.024236917495728 1)"><tspan x="0" y="0">C1</tspan></text>
    <g>
      <ellipse class="cls-29" cx="439.243195611715691" cy="65.481358627935379" rx="5.397425414063491" ry="5.269703972054913"/>
      <text class="cls-33" transform="translate(434.696725398939634 67.77099609375) scale(1.024236917495728 1)"><tspan x="0" y="0">C5</tspan></text>
    </g>
    <text class="cls-33" transform="translate(379.809030086439634 67.87646484375) scale(1.024236917495728 1)"><tspan x="0" y="0">C4</tspan></text>
    <text class="cls-33" transform="translate(355.431100398939634 67.77099609375) scale(1.024236917495728 1)"><tspan x="0" y="0">C3</tspan></text>
    <text class="cls-33" transform="translate(319.667428523939634 67.77099609375) scale(1.024236917495728 1)"><tspan x="0" y="0">C2</tspan></text>
    <line class="cls-21" x1="268.583217066855468" y1="91.662987493540641" x2="268.583217066855468" y2="122.980085384620907"/>
    <line class="cls-21" x1="287.384248141476746" y1="91.662987493540641" x2="287.384248141476746" y2="100.678407476432767"/>
    <line class="cls-21" x1="311.261430680525336" y1="91.662987493540641" x2="311.248295826065259" y2="100.678407476432767"/>
    <line class="cls-21" x1="335.525749198543963" y1="91.662987493540641" x2="335.47595113141233" y2="100.678407476432767"/>
    <line class="cls-21" x1="359.790508136710741" y1="91.662987493540641" x2="359.790508136710741" y2="100.019232363510127"/>
    <line class="cls-21" x1="384.482938316426043" y1="91.662987493540641" x2="384.482938316427862" y2="100.678407476432767"/>
    <polyline class="cls-21" points="414.433739269551552 100.678839904898268 427.117688992594594 91.662987493540641 438.718209548357663 100.678407476432767"/>
    <line class="cls-21" x1="384.482938316426043" y1="81.12357954943036" x2="384.482938316426043" y2="70.751062599990291"/>
    <line class="cls-21" x1="359.790508136710741" y1="81.12357954943036" x2="359.790508136710741" y2="70.751062599990291"/>
    <polyline class="cls-21" points="311.261430680525336 81.12357954943036 324.077102697429837 70.751062599990291 335.525749198543963 81.12357954943036"/>
    <polyline class="cls-21" points="268.583217066855468 81.12357954943036 277.542435045425918 70.751062599990291 287.384248141476746 81.12357954943036"/>
    <ellipse class="cls-27" cx="384.482938316427862" cy="43.785924475777165" rx="5.397425414061217" ry="5.269703972054459"/>
    <ellipse class="cls-10" cx="342.363118227082396" cy="43.785924475777165" rx="5.397425414062583" ry="5.269703972054459"/>
    <ellipse class="cls-30" cx="277.542433893392172" cy="43.785925585918449" rx="5.39742563466416" ry="5.269705312210256"/>
    <line class="cls-21" x1="277.542435045425918" y1="49.055630898128584" x2="277.542435045425918" y2="60.21165465588092"/>
    <polyline class="cls-21" points="324.077102697429837 60.21165465588092 342.36311822708285 49.055628447831623 359.790508136710741 60.21165465588092"/>
    <line class="cls-21" x1="384.482938316427862" y1="49.055628447831623" x2="384.482938316426043" y2="60.21165465588092"/>
    <text class="cls-33" transform="translate(274.396920711439634 46.11669921875) scale(1.024236917495728 1)"><tspan x="0" y="0">P1</tspan></text>
    <g>
      <ellipse class="cls-29" cx="439.243195611715691" cy="43.785924475777165" rx="5.397425414063491" ry="5.269703972054459"/>
      <text class="cls-33" transform="translate(435.847116023939634 46.11669921875) scale(1.024236917495728 1)"><tspan x="0" y="0">P4</tspan></text>
    </g>
    <text class="cls-33" transform="translate(381.251412898939634 46.11669921875) scale(1.024236917495728 1)"><tspan x="0" y="0">P3</tspan></text>
    <text class="cls-33" transform="translate(339.015084773939634 46.11669921875) scale(1.024236917495728 1)"><tspan x="0" y="0">P2</tspan></text>
    <ellipse class="cls-25" cx="308.46517421549288" cy="24.721956832025853" rx="5.397425414062127" ry="5.269703972054459"/>
    <text class="cls-33" transform="translate(305.143991023939634 27.17724609375) scale(1.024236917495728 1)"><tspan x="0" y="0">K1</tspan></text>
    <g>
      <ellipse class="cls-13" cx="413.134924009426413" cy="24.721956832025853" rx="5.397425414062583" ry="5.269703972054459"/>
      <text class="cls-33" transform="translate(409.535592586439634 27.17724609375) scale(1.024236917495728 1)"><tspan x="0" y="0">K2</tspan></text>
    </g>
    <polyline class="cls-21" points="277.542435045425918 38.516220273708313 308.465174215493789 29.991660804080311 342.36311822708285 38.516220503722252"/>
    <polyline class="cls-21" points="308.465174215493789 19.45225285997094 360.312687301892765 12.199516444590699 413.134924009426868 19.45225285997094"/>
    <polyline class="cls-21" points="439.243195611715237 38.516220503722252 413.134924009426868 29.991660804080311 384.482938316427862 38.516220503722252"/>
    <line class="cls-21" x1="439.243195611715237" y1="49.055628447831623" x2="439.243195611715237" y2="60.21165465588092"/>
    <polyline class="cls-21" points="451.018097525859957 81.489949884974521 439.243195611715237 70.751062599990291 427.117688992594594 81.12357954943036"/>
    <line class="cls-21" x1="451.018097525856319" y1="122.980085384620907" x2="451.018097525859957" y2="92.029357829082983"/>
    <text class="cls-32" transform="translate(267.542428523939634 171.39599609375) scale(1.024236917495728 1)"><tspan x="0" y="0">2D Linear Order</tspan></text>
    <text class="cls-31" transform="translate(476.486764461439634 130.5078125) scale(1.024236917495728 1)"><tspan x="0" y="0">Genus</tspan></text>
    <text class="cls-31" transform="translate(476.011178523939634 108.220703125) scale(1.024236917495728 1)"><tspan x="0" y="0">Family</tspan></text>
    <text class="cls-31" transform="translate(476.258248836439634 88.453125) scale(1.024236917495728 1)"><tspan x="0" y="0">Order</tspan></text>
    <text class="cls-31" transform="translate(476.140084773939634 67.87744140625) scale(1.024236917495728 1)"><tspan x="0" y="0">Class</tspan></text>
    <text class="cls-31" transform="translate(476.011178523939634 46.4794921875) scale(1.024236917495728 1)"><tspan x="0" y="0">Phylum</tspan></text>
    <text class="cls-31" transform="translate(476.011178523939634 27.17724609375) scale(1.024236917495728 1)"><tspan x="0" y="0">Kingdom</tspan></text>
    <text class="cls-31" transform="translate(266.848092586439634 155.7265625) scale(1.024236917495728 1)"><tspan x="0" y="0">1</tspan></text>
    <text class="cls-31" transform="translate(279.377389461439634 155.7265625) scale(1.024236917495728 1)"><tspan x="0" y="0">2</tspan></text>
    <text class="cls-31" transform="translate(290.968209773939634 155.7265625) scale(1.024236917495728 1)"><tspan x="0" y="0">3</tspan></text>
    <text class="cls-31" transform="translate(303.614694148939634 155.7275390625) scale(1.024236917495728 1)"><tspan x="0" y="0">4</tspan></text>
    <text class="cls-31" transform="translate(316.054147273939634 155.7265625) scale(1.024236917495728 1)"><tspan x="0" y="0">5</tspan></text>
    <text class="cls-31" transform="translate(327.645944148939634 155.7275390625) scale(1.024236917495728 1)"><tspan x="0" y="0">6</tspan></text>
    <text class="cls-31" transform="translate(339.829537898939634 155.7275390625) scale(1.024236917495728 1)"><tspan x="0" y="0">7</tspan></text>
    <text class="cls-31" transform="translate(352.485787898939634 155.7275390625) scale(1.024236917495728 1)"><tspan x="0" y="0">8</tspan></text>
    <text class="cls-31" transform="translate(364.193795711439634 155.7275390625) scale(1.024236917495728 1)"><tspan x="0" y="0">9</tspan></text>
    <text class="cls-31" transform="translate(375.310983211439634 155.7265625) scale(1.024236917495728 1)"><tspan x="0" y="0">10</tspan></text>
    <text class="cls-31" transform="translate(387.044381648939634 155.7265625) scale(1.024236917495728 1)"><tspan x="0" y="0">11</tspan></text>
    <text class="cls-31" transform="translate(399.226022273939634 155.7265625) scale(1.024236917495728 1)"><tspan x="0" y="0">12</tspan></text>
    <text class="cls-31" transform="translate(412.038522273939634 155.7265625) scale(1.024236917495728 1)"><tspan x="0" y="0">13</tspan></text>
    <text class="cls-31" transform="translate(424.361764461439634 155.7265625) scale(1.024236917495728 1)"><tspan x="0" y="0">14</tspan></text>
    <text class="cls-31" transform="translate(436.107858211439634 155.7265625) scale(1.024236917495728 1)"><tspan x="0" y="0">15</tspan></text>
    <text class="cls-31" transform="translate(447.815866023939634 155.7265625) scale(1.024236917495728 1)"><tspan x="0" y="0">16</tspan></text>
    <rect class="cls-15" x="262.671479720237585" y="178.994780790764707" width="15.359555851682671" height="15.359459099184278"/>
    <rect class="cls-11" x="278.031035571920256" y="178.994780790764707" width="15.359555851680852" height="15.359459099184278"/>
    <rect class="cls-6" x="293.390591423601109" y="178.994780790764707" width="15.359555851682671" height="15.359459099184278"/>
    <rect class="cls-12" x="308.75014727528378" y="178.994780790764707" width="15.359555851682671" height="15.359459099184278"/>
    <rect class="cls-28" x="262.671479720237585" y="194.354239889948985" width="15.359555851682671" height="15.359459099184278"/>
    <rect class="cls-11" x="278.031035571920256" y="194.354239889948985" width="15.359555851680852" height="15.359459099184278"/>
    <rect class="cls-6" x="293.390591423601109" y="194.354239889948985" width="15.359555851682671" height="15.359459099184278"/>
    <rect class="cls-6" x="308.75014727528378" y="194.354239889948985" width="15.359555851682671" height="15.359459099184278"/>
    <rect class="cls-28" x="262.671479720237585" y="209.713698989133263" width="15.359555851682671" height="15.359459099184278"/>
    <rect class="cls-14" x="278.031035571920256" y="209.713698989133263" width="15.359555851680852" height="15.359459099184278"/>
    <rect class="cls-14" x="293.390591423601109" y="209.713698989133263" width="15.359555851682671" height="15.359459099184278"/>
    <rect class="cls-6" x="308.75014727528378" y="209.713698989133263" width="15.359555851682671" height="15.359459099184278"/>
    <rect class="cls-22" x="262.671479720237585" y="225.073158088317541" width="15.359555851682671" height="15.359459099184278"/>
    <rect class="cls-22" x="278.031035571920256" y="225.073158088317541" width="15.359555851680852" height="15.359459099184278"/>
    <rect class="cls-4" x="293.390591423601109" y="225.073158088317541" width="15.359555851682671" height="15.359459099184278"/>
    <rect class="cls-4" x="308.75014727528378" y="225.073158088317541" width="15.359555851682671" height="15.359459099184278"/>
    <rect class="cls-15" x="351.468479751564701" y="177.84499077343844" width="15.359555851682671" height="15.359459099183368"/>
    <rect class="cls-11" x="366.828035603247372" y="177.84499077343844" width="15.359555851680852" height="15.359459099183368"/>
    <rect class="cls-6" x="382.187591454928224" y="177.84499077343844" width="15.359555851680852" height="15.359459099183368"/>
    <rect class="cls-12" x="397.547147306609077" y="177.84499077343844" width="15.359555851682671" height="15.359459099183368"/>
    <rect class="cls-28" x="351.468479751564701" y="193.204449872621808" width="15.359555851682671" height="15.359459099184278"/>
    <rect class="cls-11" x="366.828035603247372" y="193.204449872621808" width="15.359555851680852" height="15.359459099184278"/>
    <rect class="cls-6" x="382.187591454928224" y="193.204449872621808" width="15.359555851680852" height="15.359459099184278"/>
    <rect class="cls-6" x="397.547147306609077" y="193.204449872621808" width="15.359555851682671" height="15.359459099184278"/>
    <rect class="cls-28" x="351.468479751564701" y="208.563908971806086" width="15.359555851682671" height="15.359459099185187"/>
    <rect class="cls-14" x="366.828035603247372" y="208.563908971806086" width="15.359555851680852" height="15.359459099185187"/>
    <rect class="cls-14" x="382.187591454928224" y="208.563908971806086" width="15.359555851680852" height="15.359459099185187"/>
    <rect class="cls-6" x="397.547147306609077" y="208.563908971806086" width="15.359555851682671" height="15.359459099185187"/>
    <rect class="cls-22" x="351.468479751564701" y="223.923368070991273" width="15.359555851682671" height="15.359459099183368"/>
    <rect class="cls-22" x="366.828035603247372" y="223.923368070991273" width="15.359555851680852" height="15.359459099183368"/>
    <rect class="cls-4" x="382.187591454928224" y="223.923368070991273" width="15.359555851680852" height="15.359459099183368"/>
    <rect class="cls-4" x="397.547147306609077" y="223.923368070991273" width="15.359555851682671" height="15.359459099183368"/>
    <rect class="cls-15" x="440.268064437642352" y="177.84499077343753" width="15.359555851682671" height="15.359459099183368"/>
    <rect class="cls-12" x="486.346731992688547" y="177.84499077343753" width="15.359555851682671" height="15.359459099183368"/>
    <polygon class="cls-11" points="455.627608465126286 177.844953698481731 455.627608465126286 193.204426038724705 455.627608465126286 208.563898378968588 470.987205271326275 208.563898378968588 470.987205271326275 193.204426038724705 470.987205271326275 177.844953698481731 455.627608465126286 177.844953698481731"/>
    <polygon class="cls-28" points="440.26807389190526 193.204426038724705 440.26807389190526 208.563898378968588 440.26807389190526 223.923370719211562 455.627608465126286 223.923370719211562 455.627608465126286 208.563898378968588 455.627608465126286 193.204426038724705 440.26807389190526 193.204426038724705"/>
    <polygon class="cls-14" points="470.987205271326275 208.563898378968588 455.627608465126286 208.563898378968588 455.627608465126286 223.923370719211562 470.987205271326275 223.923370719211562 486.346739844547301 223.923370719211562 486.346739844547301 208.563898378968588 470.987205271326275 208.563898378968588"/>
    <polygon class="cls-6" points="486.346739844547301 193.204426038724705 486.346739844547301 177.844953698481731 470.987205271326275 177.844953698481731 470.987205271326275 193.204426038724705 470.987205271326275 208.563898378968588 486.346739844547301 208.563898378968588 486.346739844547301 223.923370719211562 501.706274417768327 223.923370719211562 501.706274417768327 208.563898378968588 501.706274417768327 193.204426038724705 486.346739844547301 193.204426038724705"/>
    <polygon class="cls-22" points="455.627608465126286 223.923370719211562 440.26807389190526 223.923370719211562 440.26807389190526 239.282780826477392 455.627608465126286 239.282780826477392 470.987205271326275 239.282780826477392 470.987205271326275 223.923370719211562 455.627608465126286 223.923370719211562"/>
    <polygon class="cls-4" points="486.346739844547301 223.923370719211562 470.987205271326275 223.923370719211562 470.987205271326275 239.282780826477392 486.346739844547301 239.282780826477392 501.706274417768327 239.282780826477392 501.706274417768327 223.923370719211562 486.346739844547301 223.923370719211562"/>
    <g>
      <polyline class="cls-8" points="270.351266414564634 186.674514770507812 286.099160701674009 186.674514770507812 285.710824520033384 202.033966064453125 270.351266414564634 202.033966064453125 270.351266414564634 232.752899169921875 285.710824520033384 232.752899169921875 285.710824520033384 217.3934326171875 301.506753475111509 217.3934326171875 301.070382625502134 232.752899169921875 316.368997127455259 232.752899169921875 316.368997127455259 202.033966064453125 301.070382625502134 202.033966064453125 301.070382625502134 186.674514770507812 312.353768855970884 186.674514770507812"/>
      <path class="cls-35" d="m311.456277400892759,186.674514770507812l-1.095672607421875-1.801513671875.0615234375-.040771484375,2.9375,1.166748046875c1.0234375.22509765625,2.046844482421875.4501953125,3.070281982421875.675537109375-1.0234375.22509765625-2.046844482421875.4501953125-3.070281982421875.675537109375l-2.9375,1.166748046875-.0615234375-.03076171875,1.095672607421875-1.8115234375Z"/>
    </g>
    <text class="cls-31" transform="translate(357.330514461439634 186.9775390625) scale(1.024236917495728 1)"><tspan x="0" y="0">1</tspan></text>
    <text class="cls-31" transform="translate(372.727975398939634 186.9775390625) scale(1.024236917495728 1)"><tspan x="0" y="0">2</tspan></text>
    <text class="cls-31" transform="translate(372.915475398939634 203.052734375) scale(1.024236917495728 1)"><tspan x="0" y="0">3</tspan></text>
    <text class="cls-31" transform="translate(356.765084773939634 203.1181640625) scale(1.024236917495728 1)"><tspan x="0" y="0">4</tspan></text>
    <text class="cls-31" transform="translate(356.765084773939634 218.8681640625) scale(1.024236917495728 1)"><tspan x="0" y="0">5</tspan></text>
    <text class="cls-31" transform="translate(357.078561336439634 233.7978515625) scale(1.024236917495728 1)"><tspan x="0" y="0">6</tspan></text>
    <text class="cls-31" transform="translate(373.193795711439634 233.86328125) scale(1.024236917495728 1)"><tspan x="0" y="0">7</tspan></text>
    <text class="cls-31" transform="translate(372.915475398939634 218.41259765625) scale(1.024236917495728 1)"><tspan x="0" y="0">8</tspan></text>
    <text class="cls-31" transform="translate(388.759225398939634 218.4775390625) scale(1.024236917495728 1)"><tspan x="0" y="0">9</tspan></text>
    <text class="cls-31" transform="translate(386.720162898939634 233.8623046875) scale(1.024236917495728 1)"><tspan x="0" y="0">10</tspan></text>
    <text class="cls-31" transform="translate(402.104928523939634 233.79833984375) scale(1.024236917495728 1)"><tspan x="0" y="0">11</tspan></text>
    <text class="cls-31" transform="translate(401.723092586439634 218.4130859375) scale(1.024236917495728 1)"><tspan x="0" y="0">12</tspan></text>
    <text class="cls-31" transform="translate(402.104928523939634 203.11865234375) scale(1.024236917495728 1)"><tspan x="0" y="0">13</tspan></text>
    <text class="cls-31" transform="translate(386.719186336439634 203.18212890625) scale(1.024236917495728 1)"><tspan x="0" y="0">14</tspan></text>
    <text class="cls-31" transform="translate(386.720162898939634 186.97802734375) scale(1.024236917495728 1)"><tspan x="0" y="0">15</tspan></text>
    <text class="cls-31" transform="translate(402.104928523939634 187.03662109375) scale(1.024236917495728 1)"><tspan x="0" y="0">16</tspan></text>
    <text class="cls-32" transform="translate(371.700631648939634 171.1513671875) scale(1.024236917495728 1)"><tspan x="0" y="0">Genus</tspan></text>
    <text class="cls-31" transform="translate(444.640084773939634 187.03662109375) scale(1.024236917495728 1)"><tspan x="0" y="0">O1</tspan></text>
    <text class="cls-31" transform="translate(459.318795711439634 194.353515625) scale(1.024236917495728 1)"><tspan x="0" y="0">O2</tspan></text>
    <text class="cls-31" transform="translate(444.641061336439634 209.7138671875) scale(1.024236917495728 1)"><tspan x="0" y="0">O3</tspan></text>
    <text class="cls-31" transform="translate(451.725045711439634 233.798828125) scale(1.024236917495728 1)"><tspan x="0" y="0">O4</tspan></text>
    <text class="cls-31" transform="translate(466.476998836439634 217.39306640625) scale(1.024236917495728 1)"><tspan x="0" y="0">O5</tspan></text>
    <text class="cls-31" transform="translate(481.725045711439634 233.927734375) scale(1.024236917495728 1)"><tspan x="0" y="0">O6</tspan></text>
    <text class="cls-31" transform="translate(482.003366023939634 203.1826171875) scale(1.024236917495728 1)"><tspan x="0" y="0">O7</tspan></text>
    <text class="cls-31" transform="translate(490.651803523939634 187.12548828125) scale(1.024236917495728 1)"><tspan x="0" y="0">O8</tspan></text>
    <text class="cls-32" transform="translate(460.247506648939634 171.2392578125) scale(1.024236917495728 1)"><tspan x="0" y="0">Order</tspan></text>
  </g>
  <image width="696" height="659" transform="translate(0 3.435926072139409) scale(.364636830520918)" xlink:href="图片2.png"/>
  <rect class="cls-36" y="247.070915059836807" width="16.340425531921937" height="23.936170212770776"/>
  <text class="cls-20" transform="translate(254.935983211439634 9.0498046875) scale(1.024236917495728 1)"><tspan x="0" y="0">B</tspan></text>
  <text class="cls-20" transform="translate(1.127877742689634 10.07080078125) scale(1.024236917495728 1)"><tspan x="0" y="0">A</tspan></text>
  <text class="cls-20" transform="translate(2.255319148939634 256.17724609375) scale(1.024236917495728 1)"><tspan x="0" y="0">C</tspan></text>
</svg>